<svg xmlns="http://www.w3.org/2000/svg" viewBox="0 0 24 24" fill="#25D366">
  <path d="M12.031 6.172c-3.181 0-5.767 2.586-5.768 5.766-.001 1.298.38 2.27 1.019 3.287l-.582 2.128 2.182-.573c.978.58 1.911.928 3.145.929 3.178 0 5.767-2.587 5.768-5.766 0-3.18-2.587-5.771-5.764-5.771zm3.392 8.244c-.144.405-.837.774-1.17.824-.299.045-.677.063-1.092-.069-.252-.08-.575-.187-.988-.365-1.739-.751-2.874-2.512-2.961-2.628-.086-.117-.718-.953-.718-1.819 0-.866.454-1.291.614-1.468.16-.177.346-.222.463-.222.114 0 .228.001.326.005.101.005.234-.038.366.279.131.317.452 1.1.491 1.182.038.082.063.177.009.289-.054.113-.081.185-.162.279-.081.094-.171.21-.243.282-.082.083-.169.174-.073.342.096.167.426.702.915 1.139.63.563 1.161.738 1.328.823.167.086.265.071.365-.043.099-.115.426-.496.54-.664.114-.168.228-.141.385-.083.156.059.992.468 1.163.554.171.085.285.128.326.201.042.072.042.418-.102.823zM12 0C5.373 0 0 5.373 0 12s5.373 12 12 12 12-5.373 12-12S18.627 0 12 0z"/>
</svg>
